<svg width="31" height="7" viewBox="0 0 31 7" fill="none" xmlns="http://www.w3.org/2000/svg">
<path d="M1.95 -4.76837e-07H4.8L6.65 7H5.45L4.97 5.2H1.75L1.3 7H0.15L1.95 -4.76837e-07ZM4.69 4.1L3.9 1.1H2.8L2.05 4.1H4.69ZM7.08888 -4.76837e-07H9.43888C9.98554 -4.76837e-07 10.4889 0.0933328 10.9489 0.279999C11.4089 0.46 11.8055 0.706666 12.1389 1.02C12.4722 1.33333 12.7289 1.70333 12.9089 2.13C13.0955 2.55667 13.1889 3.01333 13.1889 3.5C13.1889 3.98667 13.0955 4.44333 12.9089 4.87C12.7289 5.29667 12.4722 5.66667 12.1389 5.98C11.8055 6.29333 11.4089 6.54333 10.9489 6.73C10.4889 6.91 9.98554 7 9.43888 7H7.08888V-4.76837e-07ZM9.43888 5.9C9.82554 5.9 10.1755 5.84 10.4889 5.72C10.8022 5.6 11.0689 5.43667 11.2889 5.23C11.5155 5.01667 11.6889 4.76333 11.8089 4.47C11.9289 4.17667 11.9889 3.85333 11.9889 3.5C11.9889 3.15333 11.9289 2.83333 11.8089 2.54C11.6889 2.24 11.5155 1.98667 11.2889 1.78C11.0689 1.56667 10.8022 1.4 10.4889 1.28C10.1755 1.16 9.82554 1.1 9.43888 1.1H8.23888V5.9H9.43888ZM13.8781 -4.76837e-07H15.7781L17.6781 4.35H17.9281L19.8281 -4.76837e-07H21.6781V7H20.5281V2.1L20.6281 1.15H20.5281L18.6781 5.4H16.8781L15.0281 1.15H14.9281L15.0281 2.1V7H13.8781V-4.76837e-07ZM22.6694 -4.76837e-07H23.8194V7H22.6694V-4.76837e-07ZM24.8102 -4.76837e-07H26.4602L29.5102 5.55H29.6102L29.5102 4.7V-4.76837e-07H30.6602V7H29.0102L25.9602 1.45H25.8602L25.9602 2.3V7H24.8102V-4.76837e-07Z" fill="white"/>
</svg>
