<svg width="18" height="18" viewBox="0 0 18 18" fill="none" xmlns="http://www.w3.org/2000/svg">
<path d="M9.01494 2.18359C6.53244 2.18359 4.51494 4.20109 4.51494 6.68359V8.85109C4.51494 9.30859 4.31994 10.0061 4.08744 10.3961L3.22494 11.8286C2.69244 12.7136 3.05994 13.6961 4.03494 14.0261C7.26744 15.1061 10.7549 15.1061 13.9874 14.0261C14.8949 13.7261 15.2924 12.6536 14.7974 11.8286L13.9349 10.3961C13.7099 10.0061 13.5149 9.30859 13.5149 8.85109V6.68359C13.5149 4.20859 11.4899 2.18359 9.01494 2.18359Z" stroke="white" stroke-miterlimit="10" stroke-linecap="round"/>
<path d="M10.402 2.40203C10.1695 2.33453 9.92945 2.28203 9.68195 2.25203C8.96195 2.16203 8.27195 2.21453 7.62695 2.40203C7.84445 1.84703 8.38445 1.45703 9.01445 1.45703C9.64445 1.45703 10.1845 1.84703 10.402 2.40203Z" stroke="white" stroke-miterlimit="10" stroke-linecap="round" stroke-linejoin="round"/>
<path d="M11.2646 14.293C11.2646 15.5305 10.2521 16.543 9.01465 16.543C8.39965 16.543 7.82965 16.288 7.42465 15.883C7.01965 15.478 6.76465 14.908 6.76465 14.293" stroke="white" stroke-miterlimit="10"/>
</svg>
