<svg width="18" height="18" viewBox="0 0 18 18" fill="none" xmlns="http://www.w3.org/2000/svg">
<path d="M16.5 9C16.5 13.14 13.14 16.5 9 16.5C4.86 16.5 1.5 13.14 1.5 9C1.5 4.86 4.86 1.5 9 1.5" stroke="white" stroke-linecap="round" stroke-linejoin="round"/>
<path d="M12.75 2.25V5.25H15.75" stroke="white" stroke-linecap="round" stroke-linejoin="round"/>
<path d="M16.5 1.5L12.75 5.25" stroke="white" stroke-linecap="round" stroke-linejoin="round"/>
<path d="M6.99078 12.7513V9.86H6.11328V9.14H6.99078V8.2175H6.11328V7.4975H6.99078V4.71875H8.16078L9.22953 7.4975H10.557V4.71875H11.4458V7.4975H12.3233V8.2175H11.4458V9.14H12.3233V9.86H11.4458V12.7513H10.2645L9.19578 9.86H7.86828V12.7513H6.99078ZM7.86828 9.14H8.92578L8.58828 8.2175H7.84578L7.86828 9.14ZM10.557 11.165H10.602L10.5683 9.86H10.0958L10.557 11.165ZM7.84578 7.4975H8.31828L7.84578 6.1025H7.80078L7.84578 7.4975ZM9.82578 9.14H10.5795L10.557 8.2175H9.48828L9.82578 9.14Z" fill="white"/>
</svg>

