<svg width="49" height="33" viewBox="0 0 49 33" fill="none" xmlns="http://www.w3.org/2000/svg">
<path d="M48.3972 8.02695V5.0063H38.5446C37.0739 5.0063 35.8807 6.19954 35.8807 7.67023V19.6443C35.8807 21.9286 34.0282 23.7811 31.744 23.7811H16.6532C14.369 23.7811 12.5165 21.9286 12.5165 19.6443L12.5165 7.67023C12.5165 6.19954 11.3233 5.0063 9.85258 5.0063H0L0 8.02695C0 9.72294 0.673802 11.3501 1.8733 12.5496L20.9985 31.6748C22.7654 33.4417 25.6338 33.4417 27.4007 31.6748L46.526 12.5496C47.7234 11.3501 48.3972 9.72294 48.3972 8.02695Z" fill="#028090"/>
<path d="M31.6028 0.000837326L16.7958 0.000837326C15.8153 0.000837326 15.0205 0.795638 15.0205 1.7761V8.4474C15.0205 9.42786 15.8153 10.2227 16.7958 10.2227L31.6028 10.2227C32.5833 10.2227 33.3781 9.42786 33.3781 8.4474V1.7761C33.3781 0.795638 32.5833 0.000837326 31.6028 0.000837326Z" fill="#028090"/>
</svg>
