<svg width="166" height="33" viewBox="0 0 166 33" fill="none" xmlns="http://www.w3.org/2000/svg">
<path d="M58.3356 0.132812H69.9689L76.8015 25.984H71.0779L69.6005 20.2604H58.7059L57.2285 25.984H51.5049L58.3356 0.132812ZM68.3072 15.0894L65.7227 5.30382H62.5837L59.9991 15.0894H68.3072Z" fill="white"/>
<path d="M77.4648 7.14827H82.6358V9.54861H82.8201C83.2137 9.00766 83.6945 8.51518 84.2606 8.07118C84.7531 7.70279 85.3619 7.36349 86.089 7.05521C86.8141 6.74692 87.6963 6.59375 88.7298 6.59375C89.9358 6.59375 91.0622 6.82835 92.1092 7.29562C93.1562 7.7629 94.0714 8.42792 94.8605 9.29072C95.6477 10.1535 96.2701 11.1986 96.7257 12.4298C97.1814 13.661 97.4082 15.0395 97.4082 16.5654C97.4082 18.0933 97.1814 19.4699 96.7257 20.7011C96.2701 21.9323 95.6477 22.9792 94.8605 23.8401C94.0714 24.7029 93.1562 25.366 92.1092 25.8352C91.0622 26.3025 89.9358 26.5371 88.7298 26.5371C87.6963 26.5371 86.8161 26.3839 86.089 26.0756C85.3619 25.7674 84.7531 25.43 84.2606 25.0597C83.6945 24.6157 83.2137 24.1251 82.8201 23.5822H82.6358V32.9994H77.4648V7.14827ZM87.4365 22.1048C88.7414 22.1048 89.8368 21.624 90.7229 20.6642C91.609 19.7045 92.053 18.3376 92.053 16.5654C92.053 14.7933 91.609 13.4264 90.7229 12.4666C89.8368 11.5069 88.7414 11.026 87.4365 11.026C86.0328 11.026 84.8811 11.5069 83.9834 12.4666C83.0837 13.4264 82.6358 14.7933 82.6358 16.5654C82.6358 18.3376 83.0857 19.7045 83.9834 20.6642C84.8811 21.624 86.0328 22.1048 87.4365 22.1048Z" fill="white"/>
<path d="M106.749 26.5332C105.543 26.5332 104.416 26.2986 103.369 25.8313C102.322 25.364 101.405 24.699 100.618 23.8362C99.8308 22.9753 99.2084 21.9283 98.7528 20.6972C98.2972 19.466 98.0703 18.0874 98.0703 16.5615C98.0703 15.0356 98.2972 13.6571 98.7528 12.4259C99.2084 11.1947 99.8289 10.1496 100.618 9.28684C101.405 8.42597 102.322 7.76093 103.369 7.29172C104.416 6.82445 105.541 6.58984 106.749 6.58984C107.782 6.58984 108.662 6.74302 109.389 7.0513C110.115 7.35958 110.725 7.69695 111.218 8.06727C111.784 8.51128 112.265 9.00375 112.658 9.5447H112.843V7.14436H118.014V25.9787H112.843V23.5783H112.658C112.265 24.1193 111.784 24.6118 111.218 25.0558C110.725 25.4242 110.117 25.7635 109.389 26.0717C108.664 26.38 107.784 26.5332 106.749 26.5332ZM108.042 22.1028C109.446 22.1028 110.595 21.622 111.495 20.6622C112.393 19.7025 112.843 18.3356 112.843 16.5634C112.843 14.7913 112.393 13.4244 111.495 12.4646C110.595 11.5049 109.446 11.0241 108.042 11.0241C106.737 11.0241 105.642 11.5049 104.756 12.4646C103.87 13.4244 103.425 14.7913 103.425 16.5634C103.425 18.3356 103.87 19.7025 104.756 20.6622C105.642 21.622 106.737 22.1028 108.042 22.1028Z" fill="white"/>
<path d="M132.453 6.59375V7.14827H132.895V6.59375H132.453Z" fill="white"/>
<path d="M145.562 21.5538V25.9861H134.854V11.5822H130.127C128.723 11.5822 127.633 11.9699 126.858 12.7435C126.082 13.5152 125.694 14.5642 125.694 15.8846V25.9861H120.525V7.15182H125.694V9.92055H125.881C126.102 9.33113 126.433 8.81345 126.877 8.36944C127.246 7.97585 127.738 7.58224 128.355 7.18864C128.969 6.79505 129.745 6.5973 130.681 6.5973H132.453V7.15182H132.895V6.5973H134.854V3.08984H140.023V6.5973H145.378V11.5822H140.023V21.5538H145.562Z" fill="white"/>
<path d="M156.012 26.5332C154.583 26.5332 153.247 26.2753 152.005 25.7576C150.762 25.24 149.684 24.5342 148.773 23.6346C147.861 22.7369 147.148 21.6783 146.63 20.4587C146.112 19.2411 145.854 17.942 145.854 16.5635C145.854 15.1849 146.112 13.8859 146.63 12.6683C147.148 11.4506 147.861 10.392 148.773 9.49237C149.684 8.59467 150.76 7.88505 152.005 7.3693C153.247 6.85162 154.583 6.59375 156.012 6.59375C157.49 6.59375 158.837 6.85162 160.057 7.3693C161.276 7.88698 162.327 8.60048 163.215 9.51175C164.101 10.423 164.784 11.4817 165.265 12.6876C165.746 13.8936 165.984 15.1869 165.984 16.5654V17.6725H151.212C151.311 18.2639 151.501 18.83 151.784 19.371C152.067 19.9139 152.423 20.387 152.854 20.7922C153.284 21.1994 153.771 21.5193 154.312 21.7519C154.853 21.9865 155.419 22.1029 156.01 22.1029C156.848 22.1029 157.53 21.9865 158.06 21.7519C158.589 21.5173 159.025 21.2653 159.37 20.9958C159.739 20.6758 160.035 20.3075 160.257 19.8887H165.796C165.402 21.1198 164.786 22.227 163.95 23.2119C163.582 23.6307 163.149 24.0379 162.657 24.4295C162.164 24.8231 161.598 25.1799 160.958 25.4998C160.319 25.8197 159.586 26.0717 158.762 26.2559C157.94 26.4421 157.022 26.5332 156.012 26.5332ZM160.445 14.5315C160.346 14.0643 160.173 13.6203 159.927 13.2015C159.681 12.7827 159.367 12.4143 158.985 12.0944C158.603 11.7744 158.159 11.5166 157.655 11.3188C157.15 11.123 156.602 11.0241 156.01 11.0241C154.804 11.0241 153.8 11.375 153.001 12.0769C152.2 12.7788 151.665 13.597 151.394 14.5335H160.445V14.5315Z" fill="white"/>
<path d="M48.3972 8.02695V5.0063H38.5446C37.0739 5.0063 35.8807 6.19954 35.8807 7.67023V19.6443C35.8807 21.9286 34.0282 23.7811 31.744 23.7811H16.6532C14.369 23.7811 12.5165 21.9286 12.5165 19.6443L12.5165 7.67023C12.5165 6.19954 11.3233 5.0063 9.85258 5.0063H0L0 8.02695C0 9.72294 0.673802 11.3501 1.8733 12.5496L20.9985 31.6748C22.7654 33.4417 25.6338 33.4417 27.4007 31.6748L46.526 12.5496C47.7234 11.3501 48.3972 9.72294 48.3972 8.02695Z" fill="#028090"/>
<path d="M31.6028 0.000837326L16.7958 0.000837326C15.8153 0.000837326 15.0205 0.795638 15.0205 1.7761V8.4474C15.0205 9.42786 15.8153 10.2227 16.7958 10.2227L31.6028 10.2227C32.5833 10.2227 33.3781 9.42786 33.3781 8.4474V1.7761C33.3781 0.795638 32.5833 0.000837326 31.6028 0.000837326Z" fill="#028090"/>
</svg>
